<?xml version="1.0" standalone="no"?>
<!DOCTYPE svg PUBLIC "-//W3C//DTD SVG 20010904//EN"
 "http://www.w3.org/TR/2001/REC-SVG-20010904/DTD/svg10.dtd">
<svg version="1.0" xmlns="http://www.w3.org/2000/svg"
 width="256.000000pt" height="256.000000pt" viewBox="0 0 256.000000 256.000000"
 preserveAspectRatio="xMidYMid meet">
<metadata>
Created by potrace 1.11, written by Peter Selinger 2001-2013
</metadata>
<g transform="translate(0.000000,256.000000) scale(0.100000,-0.100000)"
fill="#000000" stroke="none">
<path d="M1178 2175 c-2 -2 -28 -5 -58 -8 -249 -27 -478 -206 -573 -447 -23
-58 -29 -82 -43 -170 -9 -53 -6 -189 6 -246 35 -180 135 -333 284 -432 90 -60
183 -97 312 -123 107 -21 119 -27 179 -85 22 -22 63 -57 90 -79 28 -22 52 -43
55 -46 13 -15 133 -91 200 -126 122 -64 248 -96 375 -96 74 -1 181 19 191 34
3 5 14 9 25 9 13 0 19 7 19 21 0 16 -4 19 -17 14 -10 -4 -54 -8 -98 -10 -194
-7 -361 82 -637 338 -40 37 -38 47 12 62 60 17 174 91 238 153 152 148 223
327 217 550 -9 332 -206 586 -517 663 -63 16 -250 33 -260 24z m182 -89 c180
-59 300 -204 360 -435 25 -94 33 -282 18 -397 -16 -124 -76 -245 -165 -332
-107 -103 -294 -146 -450 -103 -205 56 -358 255 -403 521 -18 103 -16 280 4
363 51 216 173 341 391 402 42 11 187 0 245 -19z"/>
</g>
</svg>
